<svg width="169" height="12" overflow="visible" style="display: block;" viewBox="0 0 169 12" fill="none" xmlns="http://www.w3.org/2000/svg">
<g id="COMMENDA MEDIA">
<path d="M8.48925 0V2.03542H3.97718C3.69536 2.03542 3.45092 2.10082 3.24386 2.23161C3.04256 2.35695 2.87289 2.53951 2.73485 2.77929C2.59681 3.01362 2.48754 3.297 2.40701 3.62943C2.32649 3.9564 2.26898 4.32153 2.23447 4.7248C2.19996 5.12262 2.1827 5.54768 2.1827 6C2.1827 6.46867 2.21146 6.93733 2.26898 7.40599C2.33224 7.87466 2.4329 8.30245 2.57093 8.68937C2.71472 9.07085 2.90165 9.37875 3.13171 9.61308C3.36177 9.84741 3.64359 9.96458 3.97718 9.96458H8.48925V12H3.65797C2.95053 12 2.361 11.8365 1.88938 11.5095C1.4235 11.1771 1.04965 10.7302 0.767829 10.1689C0.491756 9.60763 0.293328 8.9673 0.172546 8.24796C0.0575153 7.52861 0 6.77929 0 6C0 5.22071 0.0517638 4.47139 0.155291 3.75204C0.258819 3.0327 0.442868 2.39237 0.707438 1.83106C0.97776 1.26975 1.34873 0.825613 1.82036 0.498638C2.29774 0.166213 2.91027 0 3.65797 0H8.48925Z" fill="currentColor"/>
<path d="M13.1566 12C12.4492 12 11.8625 11.8365 11.3967 11.5095C10.9308 11.1771 10.5598 10.7302 10.2837 10.1689C10.0077 9.60763 9.81211 8.9673 9.69707 8.24796C9.58204 7.52861 9.52453 6.77929 9.52453 6C9.52453 5.22071 9.57342 4.47139 9.67119 3.75204C9.77472 3.0327 9.95877 2.39237 10.2233 1.83106C10.4879 1.26975 10.856 0.825613 11.3276 0.498638C11.805 0.166213 12.4147 0 13.1566 0H18.4451C19.1928 0 19.8025 0.166213 20.2741 0.498638C20.7458 0.825613 21.1139 1.26975 21.3784 1.83106C21.643 2.39237 21.8242 3.0327 21.9219 3.75204C22.0255 4.47139 22.0772 5.22071 22.0772 6C22.0772 6.77929 22.0197 7.52861 21.9047 8.24796C21.7897 8.9673 21.5941 9.60763 21.318 10.1689C21.042 10.7302 20.671 11.1771 20.2051 11.5095C19.7392 11.8365 19.1526 12 18.4451 12H13.1566ZM18.1259 9.96458C18.4595 9.96458 18.7414 9.84741 18.9714 9.61308C19.2015 9.37875 19.3855 9.06812 19.5236 8.6812C19.6673 8.29428 19.768 7.86921 19.8255 7.40599C19.8888 6.93733 19.9204 6.46867 19.9204 6C19.9204 5.62398 19.9089 5.26431 19.8859 4.92098C19.8629 4.57766 19.8226 4.25886 19.7651 3.96458C19.7134 3.6703 19.6415 3.40599 19.5494 3.17166C19.4632 2.93188 19.3539 2.72752 19.2216 2.55858C19.0893 2.38965 18.9312 2.25886 18.7471 2.16621C18.5688 2.07357 18.3617 2.02725 18.1259 2.02725H13.4758C13.125 2.02725 12.8317 2.12807 12.5958 2.3297C12.3658 2.53134 12.1817 2.81199 12.0437 3.17166C11.9114 3.52589 11.8165 3.9455 11.759 4.43052C11.7072 4.91008 11.6814 5.43324 11.6814 6C11.6814 6.46867 11.7101 6.93733 11.7676 7.40599C11.8309 7.86921 11.9315 8.29428 12.0696 8.6812C12.2134 9.06812 12.4003 9.37875 12.6304 9.61308C12.8604 9.84741 13.1422 9.96458 13.4758 9.96458H18.1259Z" fill="currentColor"/>
<path d="M26.6238 4.82289V12H24.5533V0H26.6238L31.0582 9.76839L35.4927 0H37.5632V12H35.4927V4.82289L32.5766 10.8474H29.5398L26.6238 4.82289Z" fill="currentColor"/>
<path d="M43.3263 4.82289V12H41.2557V0H43.3263L47.7607 9.76839L52.1951 0H54.2657V12H52.1951V4.82289L49.2791 10.8474H46.2423L43.3263 4.82289Z" fill="currentColor"/>
<path d="M57.8719 12V0H67.5517V1.92916H60.0028V4.65123H64.8341V6.58038H60.0028V10.0708H67.5517V12H57.8719Z" fill="currentColor"/>
<path d="M78.3962 8.23161V0H80.5271V12H78.3962L72.0206 3.80926V12H69.8897V0H72.0206L78.3962 8.23161Z" fill="currentColor"/>
<path d="M89.1458 0C90.2041 0 91.0898 0.166213 91.803 0.498638C92.5219 0.825613 93.0942 1.26975 93.5198 1.83106C93.9512 2.38692 94.2589 3.02452 94.4429 3.74387C94.627 4.46322 94.719 5.21253 94.719 5.99183C94.719 6.77112 94.604 7.52044 94.3739 8.23978C94.1439 8.95913 93.7959 9.60218 93.33 10.1689C92.8699 10.7302 92.289 11.1771 91.5873 11.5095C90.8914 11.8365 90.0775 12 89.1458 12H84.1333V0H89.1458ZM86.4454 9.97275H88.8266C89.58 9.97275 90.1983 9.85559 90.6815 9.62125C91.1703 9.38147 91.5528 9.06812 91.8289 8.6812C92.105 8.29428 92.2948 7.86649 92.3983 7.39782C92.5076 6.92371 92.5622 6.45504 92.5622 5.99183C92.5622 5.53951 92.5334 5.11444 92.4759 4.71662C92.4184 4.31335 92.312 3.94823 92.1567 3.62125C92.0072 3.28883 91.7915 3.00545 91.5097 2.77112C91.2278 2.53134 90.8684 2.34605 90.4313 2.21526C89.9941 2.08447 89.4593 2.01907 88.8266 2.01907H86.4454V9.97275Z" fill="currentColor"/>
<path d="M97.3245 12H94.8743L100.12 0H105.745V12H103.389V8.59128H98.7652L97.3245 12ZM103.389 6.59673V1.98638H101.578L99.8005 6.59673H103.389Z" fill="currentColor"/>
<path d="M115.726 4.82289V12H113.656V0H115.726L120.161 9.76839L124.595 0H126.666V12H124.595V4.82289L121.679 10.8474H118.642L115.726 4.82289Z" fill="currentColor"/>
<path d="M130.272 12V0H139.952V1.92916H132.403V4.65123H137.234V6.58038H132.403V10.0708H139.952V12H130.272Z" fill="currentColor"/>
<path d="M147.225 0C148.283 0 149.169 0.166213 149.882 0.498638C150.601 0.825613 151.173 1.26975 151.599 1.83106C152.03 2.38692 152.338 3.02452 152.522 3.74387C152.706 4.46322 152.798 5.21253 152.798 5.99183C152.798 6.77112 152.683 7.52044 152.453 8.23978C152.223 8.95913 151.875 9.60218 151.409 10.1689C150.949 10.7302 150.368 11.1771 149.666 11.5095C148.97 11.8365 148.156 12 147.225 12H142.212V0H147.225ZM144.524 9.97275H146.906C147.659 9.97275 148.277 9.85559 148.76 9.62125C149.249 9.38147 149.632 9.06812 149.908 8.6812C150.184 8.29428 150.374 7.86649 150.477 7.39782C150.586 6.92371 150.641 6.45504 150.641 5.99183C150.641 5.53951 150.612 5.11444 150.555 4.71662C150.497 4.31335 150.391 3.94823 150.236 3.62125C150.086 3.28883 149.87 3.00545 149.589 2.77112C149.307 2.53134 148.947 2.34605 148.51 2.21526C148.073 2.08447 147.538 2.01907 146.906 2.01907H144.524V9.97275Z" fill="currentColor"/>
<path d="M155.067 0H157.181V12H155.067V0Z" fill="currentColor"/>
<path d="M160.58 12H158.13L163.375 0H169V12H166.645V8.59128H162.021L160.58 12ZM166.645 6.59673V1.98638H164.833L163.056 6.59673H166.645Z" fill="currentColor"/>
</g>
</svg>
